<?xml version="1.0" standalone="no"?><!DOCTYPE svg PUBLIC "-//W3C//DTD SVG 1.1//EN" "http://www.w3.org/Graphics/SVG/1.1/DTD/svg11.dtd"><svg t="1557365250618" class="icon" style="" viewBox="0 0 1024 1024" version="1.1" xmlns="http://www.w3.org/2000/svg" p-id="6891" xmlns:xlink="http://www.w3.org/1999/xlink" width="128" height="128"><defs><style type="text/css"></style></defs><path d="M922.571 336.509c0-15.17-4.247-43.084-33.010-60.682l-326.102-199.399c-28.641-17.476-75.609-17.476-104.129 0l-325.981 199.156c-28.763 17.476-33.010 45.511-33.010 60.682s4.247 43.084 33.010 60.682l326.102 199.399c14.321 8.738 32.768 13.593 52.065 13.593s37.744-4.854 52.065-13.471l325.981-199.156c28.641-17.718 33.010-45.754 33.010-60.803z" p-id="6892" fill="#BFCBD9"></path><path d="M545.982 144.756c-17.476-10.681-51.7-10.681-69.177 0l-313.359 191.51 313.481 191.632c17.476 10.681 51.7 10.681 69.177 0l313.359-191.51-313.481-191.632z" p-id="6893" fill="#BFCBD9"></path><path d="" p-id="6894" fill="#BFCBD9"></path><path d="M586.396 680.331c5.583-17.355 21.117-29.491 41.628-32.526l88.231-12.865c2.548-0.729 7.282-4.127 8.738-6.432l33.132-67.114-212.021 129.494c-17.476 10.681-51.7 10.681-69.177 0l-307.777-188.112h-68.691c0.729 15.655 6.311 40.899 32.89 57.162l326.102 199.399c14.321 8.738 32.768 13.593 52.065 13.593s37.744-4.733 52.065-13.471l41.021-25.122-3.398-3.277c-14.806-14.442-20.389-33.375-14.806-50.73z" p-id="6895" fill="#BFCBD9"></path><path d="M851.937 548.652l12.986 26.457 24.637-15.050c26.7-16.384 32.283-41.748 32.89-57.405h-68.449l-30.947 19.054c12.015 4.247 22.331 13.714 28.884 26.943z" p-id="6896" fill="#BFCBD9"></path><path d="M664.917 792.955l-21.845-21.36-96.97 59.225c-17.476 10.681-51.7 10.681-69.177 0l-313.481-191.632h-63.109c0 15.17 4.247 43.084 33.010 60.682l326.102 199.399c14.321 8.738 32.768 13.593 52.065 13.593s37.744-4.854 52.065-13.593l98.546-60.196 6.19-35.923c0-2.548-1.821-8.131-3.398-10.194z" p-id="6897" fill="#BFCBD9"></path><path d="M989.321 704.846c10.073-9.588 7.161-19.054-6.432-20.995l-88.474-12.865c-13.593-1.942-29.613-13.593-35.681-25.972l-39.564-80.221c-3.035-6.068-7.161-9.223-11.044-9.223-4.005 0-7.888 3.155-11.044 9.223l-39.564 80.221c-6.068 12.257-22.209 24.030-35.681 25.972l-88.474 12.743c-13.593 1.942-16.748 11.408-6.796 20.995l63.958 62.381c9.709 9.588 15.899 28.399 13.593 41.991l-15.050 88.11c-1.699 9.709 2.185 15.534 8.98 15.534 2.67 0 5.583-0.85 8.98-2.67l79.007-41.628c6.068-3.155 14.078-4.733 21.967-4.733s16.020 1.699 21.967 4.733l79.007 41.628c3.277 1.821 6.432 2.67 8.98 2.67 6.796 0 10.559-5.825 8.98-15.534l-15.050-88.11c-2.306-13.593 3.762-32.404 13.593-41.991l63.837-62.259z" p-id="6898" fill="#BFCBD9"></path><path d="M989.321 704.846c10.073-9.588 7.161-19.054-6.432-20.995l-88.474-12.865c-13.593-1.942-29.613-13.593-35.681-25.972l-39.564-80.221c-3.035-6.068-7.161-9.223-11.044-9.223-4.005 0-7.888 3.155-11.044 9.223l-39.564 80.221c-6.068 12.257-22.209 24.030-35.681 25.972l-88.474 12.743c-13.593 1.942-16.748 11.408-6.796 20.995l63.958 62.381c9.709 9.588 15.899 28.399 13.593 41.991l-15.050 88.11c-1.699 9.709 2.185 15.534 8.98 15.534 2.67 0 5.583-0.85 8.98-2.67l79.007-41.628c6.068-3.155 14.078-4.733 21.967-4.733s16.020 1.699 21.967 4.733l79.007 41.628c3.277 1.821 6.432 2.67 8.98 2.67 6.796 0 10.559-5.825 8.98-15.534l-15.050-88.11c-2.306-13.593 3.762-32.404 13.593-41.991l63.837-62.259z" p-id="6899" fill="#BFCBD9"></path></svg>