<?xml version="1.0" standalone="no"?><!DOCTYPE svg PUBLIC "-//W3C//DTD SVG 1.1//EN" "http://www.w3.org/Graphics/SVG/1.1/DTD/svg11.dtd"><svg t="1557365296247" class="icon" style="" viewBox="0 0 1024 1024" version="1.1" xmlns="http://www.w3.org/2000/svg" p-id="7673" xmlns:xlink="http://www.w3.org/1999/xlink" width="128" height="128"><defs><style type="text/css"></style></defs><path d="M916.416 592.512H539.2a23.584 23.584 0 0 0-23.584 23.584v377.216c0 13.024 10.56 23.584 23.584 23.584h377.216c13.024 0 23.584-10.56 23.584-23.584V616.096a23.584 23.584 0 0 0-23.584-23.584z m-23.552 377.216H562.816V639.68h330.048v330.048zM400.8 592.512H23.584a23.584 23.584 0 0 0-23.584 23.584v377.216c0 13.024 10.56 23.584 23.584 23.584h377.216c13.024 0 23.584-10.56 23.584-23.584V616.096a23.584 23.584 0 0 0-23.584-23.584z m-23.584 377.216H47.168V639.68h330.048v330.048z m23.584-895.456H23.584A23.584 23.584 0 0 0 0 97.856v377.184c0 13.024 10.56 23.584 23.584 23.584h377.216c13.024 0 23.584-10.56 23.584-23.584V97.856a23.584 23.584 0 0 0-23.584-23.584z m-23.584 377.184H47.168V121.408h330.048v330.048z m639.872-190.368L770.016 14.016a23.52 23.52 0 0 0-33.344 0L489.6 261.088a23.52 23.52 0 0 0 0 33.344l247.072 247.072a23.392 23.392 0 0 0 33.344 0l247.072-247.072a23.52 23.52 0 0 0 0-33.344z m-263.712 230.4l-213.728-213.696 213.728-213.728 213.696 213.728-213.696 213.696z" p-id="7674" fill="#BFCBD9"></path></svg>