<?xml version="1.0" standalone="no"?><!DOCTYPE svg PUBLIC "-//W3C//DTD SVG 1.1//EN" "http://www.w3.org/Graphics/SVG/1.1/DTD/svg11.dtd"><svg t="1557365795016" class="icon" style="" viewBox="0 0 1024 1024" version="1.1" xmlns="http://www.w3.org/2000/svg" p-id="9932" xmlns:xlink="http://www.w3.org/1999/xlink" width="128" height="128"><defs><style type="text/css"></style></defs><path d="M896 159.942h42.438c47.25 0 85.562 37.36 85.562 82.812v666.376c0 45.75-38.282 82.812-85.562 82.812h-724.892c-47.25 0-85.546-37.376-85.546-82.812v-45.188h-42.454c-47.25 0-85.546-37.376-85.546-82.812v-666.376c0-45.734 38.282-82.812 85.546-82.812h724.89c47.25 0 85.562 37.36 85.562 82.812v45.188z m-64 0v-31.938c0-17.704-14.062-32.062-31.876-32.046l-704.016 0.376c-17.61 0.016-31.89 14.062-31.89 32.078l-0.204 639.468c-0.016 17.688 14.046 32.062 31.86 32.062l32.126-0.032v-557.156c0-45.734 38.282-82.812 85.546-82.812H832z m-639.984 735.936c-0.016 17.688 14.046 32.062 31.86 32.062l704-0.376c17.624-0.032 31.906-14.062 31.906-32.094L960 256.004c0-17.704-14.062-32.062-31.876-32.046l-704.016 0.376c-17.61 0.016-31.89 14.062-31.89 32.078l-0.202 639.466zM662.624 543.942c60.468 0 121.094 48.438 213.938 162.25 15.812 19.376 32.344 40.532 49.594 63.406 31.094 41.218 63.718 86.968 96.906 135.844 2.624 3.876-32.75 15.688-60.812 37.25s-44 49.376-44 49.376l-710.782-0.812 38.438-52.438s-14.094 12.876-8.75 5.844a4016.206 4016.206 0 0 1 34.484-44.468c38.218-48.688 75.5-94.188 110.796-135.25 16.094-18.688 31.578-36.218 46.438-52.562 108.064-118.846 173.75-168.44 233.75-168.44z m311.626 394.874c-32.624-48.062-60.624-87.312-91.094-127.656-16.782-22.282-32.844-42.782-48.156-61.532-82.5-101.156-133.188-141.688-172.376-141.688-39.75 0-96.876 43.124-194.344 150.312a2559.374 2559.374 0 0 0-45.344 51.376c-34.672 40.282-71.376 85.094-109.032 133.062-11.844 15.062 13.954-15.438 13.954-15.438l598.296 25.032c7.158-10.342 52.658-6.812 48.096-13.468zM352 447.942c-35.344 0-64-28.656-64-64s28.656-64 64-64 64 28.656 64 64-28.656 64-64 64z" p-id="9933" fill="#bfbfbf"></path></svg>