<?xml version="1.0" standalone="no"?><!DOCTYPE svg PUBLIC "-//W3C//DTD SVG 1.1//EN" "http://www.w3.org/Graphics/SVG/1.1/DTD/svg11.dtd"><svg t="1557365904053" class="icon" style="" viewBox="0 0 1024 1024" version="1.1" xmlns="http://www.w3.org/2000/svg" p-id="11614" xmlns:xlink="http://www.w3.org/1999/xlink" width="128" height="128"><defs><style type="text/css"></style></defs><path d="M916.210526 993.28H113.178947a107.789474 107.789474 0 0 1-98.088421-115.873684V146.593684A107.789474 107.789474 0 0 1 113.178947 30.72H916.210526a107.789474 107.789474 0 0 1 98.088421 115.334737v731.351579A107.789474 107.789474 0 0 1 916.210526 993.28zM113.178947 101.322105c-12.934737 0-27.486316 19.402105-27.486315 45.271579v730.812632c0 25.869474 14.551579 45.271579 27.486315 45.271579H916.210526c12.934737 0 27.486316-19.402105 27.486316-45.271579V146.593684c0-25.869474-14.551579-45.271579-27.486316-45.271579z" p-id="11615" fill="#bfbfbf"></path><path d="M844.530526 530.863158H187.553684a39.343158 39.343158 0 0 1 0-78.686316h656.976842a39.343158 39.343158 0 0 1 0 78.686316zM590.147368 739.435789H187.553684a39.343158 39.343158 0 0 1 0-78.686315h402.593684a39.343158 39.343158 0 0 1 0 78.686315zM590.147368 323.368421H187.553684a39.343158 39.343158 0 1 1 0-78.686316h402.593684a39.343158 39.343158 0 0 1 0 78.686316z" p-id="11616" fill="#bfbfbf"></path></svg>