<?xml version="1.0" standalone="no"?><!DOCTYPE svg PUBLIC "-//W3C//DTD SVG 1.1//EN" "http://www.w3.org/Graphics/SVG/1.1/DTD/svg11.dtd"><svg t="1557364956867" class="icon" style="" viewBox="0 0 1024 1024" version="1.1" xmlns="http://www.w3.org/2000/svg" p-id="2755" xmlns:xlink="http://www.w3.org/1999/xlink" width="128" height="128"><defs><style type="text/css"></style></defs><path d="M895.130446 235.345076c0 0-78.954213-5.083785-120.231315-42.705638-43.145659-39.408545-48.697095-111.409392-48.697095-111.409392S618.91452 61.882396 509.758448 61.882396c-107.259886 0-216.443587 19.346627-216.443587 19.346627s-7.28287 72.41324-48.229444 109.815081c-43.420929 39.655162-120.697943 44.299949-120.697943 44.299949s-8.271384 141.198859 3.544733 263.794012c11.652388 120.671337 41.497113 239.940744 152.218844 330.326311 90.523713 73.924663 226.006384 132.955104 226.006384 132.955104s106.380866-46.388517 183.438892-96.844675c84.669378-55.621808 164.311253-131.553175 188.68743-276.133038C904.061862 436.508655 895.130446 235.345076 895.130446 235.345076zM658.543076 804.732088c-51.167357 33.464159-117.956505 64.836681-142.381801 75.9416L516.161275 509.141906 194.341708 509.141906c-0.271176-2.591011-0.533143-5.184069-0.782829-7.777127-9.810437-101.543697-2.940982-218.367403-2.940982-218.367403s63.949474-3.847631 99.921757-36.742832c33.884738-30.943756 39.930431-90.990341 39.930431-90.990341s90.38659-15.911388 179.178869-15.911388c2.181689 0 4.362354 0.01228 6.540973 0.029676l0 369.759415 307.099307 0.529049c-2.137687 22.603811-4.916986 45.063335-8.513908 66.388013C794.602891 695.712115 728.647737 758.699682 658.543076 804.732088z" p-id="2756" fill="#BFCBD9"></path></svg>