<?xml version="1.0" standalone="no"?><!DOCTYPE svg PUBLIC "-//W3C//DTD SVG 1.1//EN" "http://www.w3.org/Graphics/SVG/1.1/DTD/svg11.dtd"><svg t="1557365127029" class="icon" style="" viewBox="0 0 1026 1024" version="1.1" xmlns="http://www.w3.org/2000/svg" p-id="4924" xmlns:xlink="http://www.w3.org/1999/xlink" width="128.25" height="128"><defs><style type="text/css"></style></defs><path d="M575.488 958.464H0V61.44h831.488v448.512h-63.488V124.928H63.488v768H512l63.488 65.536z" p-id="4925" fill="#BFCBD9"></path><path d="M737.28 512c120.832 0 223.232 102.4 223.232 223.232s-102.4 223.232-223.232 223.232-223.232-102.4-223.232-223.232S614.4 512 737.28 512m0-65.536c-159.744 0-288.768 126.976-288.768 288.768S575.488 1024 737.28 1024s288.768-126.976 288.768-288.768S897.024 446.464 737.28 446.464zM192.512 0h63.488v192.512H192.512V0z m382.976 0h63.488v192.512h-63.488V0zM129.024 319.488h575.488v63.488H129.024v-63.488z m0 192.512h319.488v63.488H129.024V512z m0 190.464h256v63.488H129.024v-63.488z" p-id="4926" fill="#BFCBD9"></path><path d="M897.024 831.488h-192.512V575.488h63.488v192.512h126.976v63.488h2.048z" p-id="4927" fill="#BFCBD9"></path></svg>