<?xml version="1.0" standalone="no"?><!DOCTYPE svg PUBLIC "-//W3C//DTD SVG 1.1//EN" "http://www.w3.org/Graphics/SVG/1.1/DTD/svg11.dtd"><svg t="1557365756166" class="icon" style="" viewBox="0 0 1063 1024" version="1.1" xmlns="http://www.w3.org/2000/svg" p-id="9078" xmlns:xlink="http://www.w3.org/1999/xlink" width="132.875" height="128"><defs><style type="text/css"></style></defs><path d="M984.615385 945.230769l-4.332308-564.263384A110.001231 110.001231 0 0 0 866.461538 275.692308h-118.153846l-2.402461-162.028308A109.725538 109.725538 0 0 0 641.024 0H187.155692A116.775385 116.775385 0 0 0 78.769231 118.153846v827.076923H39.384615c-31.862154 0-39.384615 7.876923-39.384615 39.384616s25.836308 39.384615 57.698462 39.384615h947.987692c31.862154 0 57.698462-7.876923 57.698461-39.384615s-7.561846-39.384615-39.384615-39.384616h-39.384615z m-78.769231-551.384615v551.384615h-157.538462V354.461538h118.153846c17.683692-4.450462 16.738462-5.986462 39.384616 39.384616zM196.923077 78.769231h433.230769a39.384615 39.384615 0 0 1 39.384616 39.384615v827.076923H157.538462V118.153846a39.384615 39.384615 0 0 1 39.384615-39.384615z m275.692308 196.923077H275.692308a39.384615 39.384615 0 0 0 0 78.76923h196.923077a39.384615 39.384615 0 0 0 0-78.76923z m0 196.923077H275.692308a39.384615 39.384615 0 0 0 0 78.76923h196.923077a44.504615 44.504615 0 0 0 39.384615-39.384615 33.516308 33.516308 0 0 0-39.384615-39.384615z m0 0" p-id="9079" fill="#bfbfbf"></path></svg>