<?xml version="1.0" standalone="no"?><!DOCTYPE svg PUBLIC "-//W3C//DTD SVG 1.1//EN" "http://www.w3.org/Graphics/SVG/1.1/DTD/svg11.dtd"><svg t="1557365194598" class="icon" style="" viewBox="0 0 1024 1024" version="1.1" xmlns="http://www.w3.org/2000/svg" p-id="5470" xmlns:xlink="http://www.w3.org/1999/xlink" width="128" height="128"><defs><style type="text/css"></style></defs><path d="M696 296h-368a8 8 0 0 1-8-8v-64a8 8 0 0 1 8-8h368a8 8 0 0 1 8 8v64a8 8 0 0 1-8 8zM328 464h368a8 8 0 0 0 8-8v-64a8 8 0 0 0-8-8h-368a8 8 0 0 0-8 8v64a8 8 0 0 0 8 8z m0 192h176a8 8 0 0 0 8-8v-64a8 8 0 0 0-8-8h-176a8 8 0 0 0-8 8v64a8 8 0 0 0 8 8zM240 144h544v296a8 8 0 0 0 8 8h64a8 8 0 0 0 8-8V96a32 32 0 0 0-32-32H192a32 32 0 0 0-32 32v832a32 32 0 0 0 32 32h248a8 8 0 0 0 8-8v-64a8 8 0 0 0-8-8H240z m528 480a144 144 0 1 1-101.28 42.08A142.4 142.4 0 0 1 768 624m0-80a224 224 0 1 0 224 224 224 224 0 0 0-224-224z m66.08 280v-54.08a8.16 8.16 0 0 0-8-8h-52v-84.96a8.16 8.16 0 0 0-8-8H712a8.16 8.16 0 0 0-8 8V800a32 32 0 0 0 32 32h90.56a8 8 0 0 0 8-8z" p-id="5471" fill="#BFCBD9"></path></svg>