<?xml version="1.0" standalone="no"?><!DOCTYPE svg PUBLIC "-//W3C//DTD SVG 1.1//EN" "http://www.w3.org/Graphics/SVG/1.1/DTD/svg11.dtd"><svg t="1557365062517" class="icon" style="" viewBox="0 0 1024 1024" version="1.1" xmlns="http://www.w3.org/2000/svg" p-id="3826" xmlns:xlink="http://www.w3.org/1999/xlink" width="128" height="128"><defs><style type="text/css"></style></defs><path d="M648.794029 106.718504C665.239194 110.433407 679.068092 119.349196 690.280727 133.465872 701.493361 147.582549 707.847196 165.414128 709.342193 186.960609 709.342193 192.904468 709.529077 202.934737 709.902807 217.051414 710.276575 231.168089 710.46346 245.841986 710.46346 261.073102 710.46346 276.304257 710.089691 290.049427 709.342193 302.308652 708.594694 314.567839 706.725928 322.183435 703.735895 325.155365 699.250826 330.356214 694.952642 332.770924 690.841379 332.399418 686.730078 332.02795 684.674428 333.69965 684.674428 337.414552 684.674428 339.643509 684.113776 347.259067 682.992508 360.261264 681.871279 373.263462 678.694362 391.6523 673.461794 415.427739 670.471761 427.315458 666.36046 438.274414 661.127893 448.304681 655.895364 458.334949 650.289027 467.064986 644.30896 474.49483 636.833896 483.410618 629.358795 491.583436 621.883731 499.013241 621.136194 508.672003 620.762463 517.587793 620.762463 525.760609L620.762463 549.164542C620.762463 556.594386 621.136194 562.538245 621.883731 566.996122 622.631229 575.911949 624.873764 582.227276 628.611295 585.942179 632.348828 589.65712 639.823929 593.000517 651.036526 595.972446 654.774096 597.458431 661.314777 599.501635 670.658645 602.102059 680.002475 604.702483 691.215109 608.417424 704.296509 613.246805 717.37791 618.076187 731.019924 623.091321 745.222591 628.292208 758.677722 632.750083 772.506659 637.579464 786.709288 642.78035 799.416958 647.238265 811.003322 651.69614 821.468458 656.154016 831.933555 659.868957 839.782388 662.840886 845.014955 665.069843 859.217622 672.49965 868.748336 680.115207 873.607135 687.916518 878.465935 695.717868 882.76412 705.933851 886.501651 718.56458 887.996687 725.251413 889.865454 737.139132 892.107988 754.227739 894.350484 771.316306 896.966787 789.519391 899.95682 808.836915 902.946854 827.411505 905.376233 845.057331 907.245 861.774432 909.113804 878.491532 910.421918 889.079021 911.169454 893.536935 911.916954 903.195697 910.235034 911.182761 906.123771 917.498126 902.01247 923.813453 892.855486 928.828587 878.652819 932.543528 865.945187 935.51542 847.818104 938.673102 824.271607 942.016538 800.725071 945.359972 773.254157 948.517618 741.858789 951.489547 710.46346 954.461477 675.891212 956.876187 638.142009 958.733638 600.392845 960.59109 560.774914 961.519815 519.288218 961.519815 477.801483 961.519815 438.183552 960.776842 400.434388 959.290858 362.685223 957.804913 327.926092 955.761708 296.156994 953.161284 264.387857 950.560821 236.169444 947.588892 211.501681 944.245495 186.833877 940.902059 167.772411 937.372909 154.31728 933.657969 151.327247 932.914995 147.589715 931.429049 143.104646 929.200092 138.619615 926.971136 134.321431 924.370712 130.210131 921.398782 126.09883 918.426851 122.921912 914.526196 120.679417 909.696815 118.436881 904.867396 117.689383 899.480794 118.436881 893.536935 119.184381 888.336048 121.240031 876.819834 124.603832 858.988255 127.967596 841.156677 131.892012 822.210618 136.377081 802.150083 140.862112 782.832558 144.973412 763.886501 148.710945 745.311911 152.448514 727.480332 155.06478 716.335623 156.559815 711.87771 159.549849 702.96192 163.661149 693.860378 168.893679 684.573122 174.126246 675.285827 183.470114 665.441311 196.925244 655.039576 203.65281 650.581662 215.612942 645.380775 232.805643 639.436916 249.998343 633.493055 268.125428 627.920701 287.186894 622.719815 306.248322 617.518967 324.188521 613.246805 341.007492 609.90337 357.826424 606.559972 368.852174 604.145264 374.084703 602.659279 385.297337 600.430361 395.014936 597.644184 403.237537 594.300748 411.460138 590.957313 415.571439 586.313684 415.571439 580.369825L415.571439 516.844819C407.348837 510.90096 399.500004 503.842622 392.024903 495.669805 386.044836 488.982973 379.69104 481.181662 372.963474 472.265872 366.235871 463.350083 360.255804 453.69132 355.023275 443.289547 345.305638 423.972022 338.951842 406.140444 335.961808 389.79481 332.971775 373.449215 331.103009 363.790453 330.355472 360.818523 329.607974 357.846594 326.804824 355.431884 321.946025 353.574432 317.087226 351.716981 313.53654 347.816325 311.294005 341.872466 305.313939 329.984746 302.510791 317.168301 302.884559 303.423131 303.258289 289.677922 304.192672 269.803139 305.687708 243.798782 307.930242 218.537359 312.228389 194.390453 318.582224 171.357987 324.936059 148.325521 338.578074 126.77904 359.508306 106.718504 370.72094 97.802715 385.484221 90.187156 403.798189 83.871791 422.112119 77.556464 440.612972 72.912797 459.300669 69.940868 477.988367 66.968938 495.928567 65.482992 513.121268 65.482992 530.313968 65.482992 543.39533 66.59747 552.365468 68.826389 562.083066 71.798319 569.745014 74.956002 575.351312 78.299437 580.957648 81.642834 585.442679 84.800517 588.806481 87.772447 592.170283 90.744376 594.973432 93.530554 597.215927 96.131016 599.458462 98.73144 601.700997 100.774644 603.943532 102.260628 607.681063 105.232558 612.352978 106.161284 617.959314 105.046806 623.565612 103.932327 633.843864 104.489547 648.794029 106.718504L648.794029 106.718504ZM547.880399 702.96192 577.033232 816.638226 625.247494 688.473777 579.275728 655.039576 547.880399 702.96192ZM469.392036 652.810619 425.662805 688.473777 474.998334 816.638226 500.787366 701.847441 469.392036 652.810619ZM858.470086 228.196122C868.93522 229.682105 877.157821 234.69724 883.137888 243.241523 889.117954 251.785845 892.481718 262.373333 893.229255 275.004026 893.229255 278.718967 893.602985 284.662826 894.350484 292.835604 895.098021 301.008421 895.471751 309.552706 895.471751 318.468494 895.471751 327.384284 895.098021 335.557101 894.350484 342.986945 893.602985 350.41675 892.481718 354.874663 890.98672 356.36061 888.744186 359.332539 886.314767 360.632771 883.698503 360.261264 881.082238 359.889797 879.774086 361.18999 879.774086 364.16192 879.774086 365.647904 879.587202 370.10578 879.213472 377.535623 878.839704 384.965429 876.784053 396.110175 873.046521 410.969824 871.551486 418.39963 869.308989 424.900748 866.318918 430.473102 863.328923 436.045494 859.965122 441.060628 856.227589 445.518504 852.490019 450.719391 848.378718 455.548772 843.893687 460.006648 843.146189 465.207535 842.772421 470.408421 842.772421 475.609308L842.772421 501.242198C843.519919 506.443085 844.828071 509.972234 846.696837 511.829686 848.565602 513.687137 852.863787 515.358874 859.591352 516.844819 862.581386 517.587793 869.495836 519.81675 880.334701 523.531652 891.173604 527.246593 902.946854 531.332963 915.654485 535.790878 928.362117 540.248791 940.32225 544.706666 951.534884 549.164542 962.747518 553.622456 970.59635 556.965891 975.081381 559.19481 983.303982 562.909751 989.097164 567.181874 992.460966 572.011255 995.824768 576.840674 998.254148 583.341754 999.749183 591.514571 1000.496683 595.229474 1001.61795 601.916306 1003.112948 611.575107 1004.607983 621.976842 1006.102981 632.935836 1007.598017 644.45205 1009.093014 655.968301 1010.588049 666.555789 1012.083046 676.214552 1013.578082 685.873315 1014.325582 691.817174 1014.325582 694.046131 1015.07308 699.98999 1014.138697 705.005125 1011.522432 709.091533 1008.906129 713.177941 1003.112948 715.964118 994.142848 717.450102L966.111281 723.022456C954.151149 725.251413 938.827252 727.108864 920.139516 728.59481 918.644518 719.679021 916.401983 711.134736 913.411951 702.96192 911.169454 696.275087 908.553151 688.845282 905.563119 680.672466 902.573085 672.49965 898.835553 665.441311 894.350484 659.497452 886.87542 649.095716 878.652819 640.551394 869.68272 633.864562 860.71262 627.177729 851.929404 621.605337 843.333073 617.147461 834.736703 612.689547 825.953488 609.346149 816.983389 607.117193 808.013289 604.888236 799.416958 602.287812 791.194357 599.315882 753.818923 585.942179 723.731745 576.654922 700.932707 571.454035 678.133709 566.253148 665.612962 562.16674 663.370427 559.19481 661.875429 556.965891 660.941047 554.365429 660.567279 551.393499 660.193509 548.42157 660.006663 545.078173 660.006663 541.363232 660.006663 537.648329 660.380393 533.561921 661.127893 529.104045 670.845529 526.132114 678.320593 524.274663 683.553161 523.531652 688.785729 522.78868 692.896991 522.045706 695.887062 521.302734 701.867129 519.81675 707.286542 518.145051 712.145341 516.2876 717.004141 514.430149 719.43356 512.015439 719.43356 509.043509L719.43356 470.036915 717.191025 468.922476 712.705995 467.807997C711.210959 467.064986 710.089691 465.207535 709.342193 462.235605 713.079725 452.576842 717.191025 441.060628 721.676094 427.686925 725.413626 416.542178 729.338042 402.611255 733.449343 385.894155 737.560644 369.177054 741.111291 349.302271 744.101324 326.269843 746.343858 307.695254 747.838856 291.163906 748.586394 276.675762 749.333892 262.18758 749.70766 249.742641 749.70766 239.340868L749.70766 204.792188C757.930223 203.306242 767.087206 202.563232 777.178574 202.563232 787.26994 202.563232 794.931889 203.306242 800.164456 204.792188 812.872089 208.507091 820.534036 212.222032 823.150339 215.936935 825.766604 219.651837 828.569754 222.623768 831.559786 224.852724 834.549819 226.33867 837.726737 226.895928 841.090538 226.524423 844.454302 226.152955 850.247522 226.710176 858.470086 228.196122L858.470086 228.196122ZM802.406991 575.911949 810.255824 604.888236 830.438519 611.575107 846.136222 572.568514 822.589687 553.622456 802.406991 575.911949ZM766.526592 577.026389 762.041523 589.285614 728.40366 579.255346 727.282392 574.797471 746.343858 556.965891 766.526592 577.026389ZM259.715942 203.677709C257.473408 221.509289 256.35214 239.340868 256.35214 257.172446 255.604642 272.775107 255.97841 289.863675 257.473408 308.438265 258.968443 327.012817 261.584708 344.844396 265.322278 361.933002 268.312273 373.820721 272.236727 385.522687 277.095526 397.038901 281.954327 408.555114 287.00001 418.39963 292.232539 426.572447 297.465106 436.97422 303.071443 446.632983 309.05151 455.548772 308.303972 460.749659 307.930242 464.836067 307.930242 467.807997 307.182744 471.5229 306.808975 475.237802 306.808975 478.952705L306.808975 490.097451C306.808975 496.784284 307.182744 502.170923 307.930242 506.257331 308.677741 510.34374 312.041543 513.129917 318.021609 514.615863 321.011642 516.101847 325.122943 517.587793 330.355472 519.073777L344.931908 523.531652C350.911974 525.760609 357.265772 527.989566 363.993337 530.218523L363.993337 533.561921C363.993337 535.047904 363.806491 536.719603 363.432721 538.577055 363.058953 540.434506 362.872107 542.849215 362.872107 545.821145 362.124571 551.765004 358.947692 555.479907 353.341355 556.965891 347.735057 558.451837 341.194338 559.566316 333.719273 560.309289L322.506639 562.538245C318.769108 563.281219 315.405306 564.02423 312.415273 564.767202 309.42524 565.510176 306.061476 566.253148 302.323906 566.996122L284.383706 552.507978 263.079743 575.911949C261.584708 575.911949 260.089711 576.283417 258.594675 577.026389 255.604642 578.512373 253.735876 579.255346 252.988377 579.255346L239.533209 582.598781 213.744176 554.736935 190.197679 572.568514 201.410313 600.430361C190.945178 605.631247 181.227579 611.575107 172.25748 618.261939L147.589715 636.093518C139.367115 642.78035 132.26578 649.095716 126.285714 655.039576 120.305648 662.469381 115.446849 670.270692 111.709317 678.443509 107.971747 686.616325 104.981713 694.417636 102.739217 701.847441 99.749184 710.763231 97.506649 719.679021 96.011614 728.59481 87.041514 727.851837 78.818951 726.737359 71.343849 725.251413 63.868785 723.765429 56.206799 722.650951 48.357966 721.907977 40.509134 721.165005 33.968453 720.050526 28.735885 718.56458 19.018287 716.335623 13.225066 711.32049 11.3563 703.519179 9.487534 695.717868 9.30065 688.102271 10.795686 680.672466 12.290683 673.242622 14.906986 660.983435 18.644518 643.894829 22.38205 626.06325 25.372083 611.575107 27.614618 600.430361 32.099687 575.168938 45.181049 557.708865 66.858818 548.050102 72.091348 545.821145 79.753334 543.220683 89.844701 540.248791 99.93603 537.276824 109.840551 534.676399 119.558149 532.447442 125.538216 530.961496 134.508316 528.361072 146.468448 524.646131L164.408648 520.188255C171.883711 518.702271 176.929395 516.659067 179.545698 514.058642 182.161963 511.458218 183.843844 507.929031 184.591343 503.471154L184.591343 484.525097 184.591343 471.151394C180.106313 468.179464 176.36878 464.836067 173.378747 461.121126 170.388713 457.406223 167.398681 453.877073 164.408648 450.533638 161.418614 447.190202 158.802311 443.661053 156.559815 439.94615 152.074746 434.002291 147.776561 426.572447 143.665299 417.656657 139.553999 408.740868 137.12458 399.453611 136.377081 389.79481 134.882046 380.879021 133.387048 376.235392 131.892012 375.863887 130.397015 375.49242 128.528249 374.563694 126.285714 373.07771 124.04318 371.591764 122.548182 369.734313 121.800684 367.505356 121.053146 365.276399 120.118764 361.18999 118.997497 355.246131 117.876229 349.302271 117.315615 342.615438 117.315615 335.185595 118.063113 327.012817 118.810612 318.468494 119.558149 309.552706 119.558149 305.094829 119.931879 299.336722 120.679417 292.278385 121.426915 285.220046 123.108796 277.418736 125.7251 268.874413 128.341365 260.330129 132.26578 252.157313 137.498349 244.356002 142.730878 236.554691 149.832211 229.682105 158.802311 223.738245 168.519948 216.308402 179.358813 211.107553 191.318947 208.135624 203.279079 205.163694 214.491676 203.306242 224.95681 202.563232 236.916944 201.820258 248.503308 202.191763 259.715942 203.677709L259.715942 203.677709Z" p-id="3827" fill="#BFCBD9"></path></svg>