<?xml version="1.0" standalone="no"?><!DOCTYPE svg PUBLIC "-//W3C//DTD SVG 1.1//EN" "http://www.w3.org/Graphics/SVG/1.1/DTD/svg11.dtd"><svg t="1557365818497" class="icon" style="" viewBox="0 0 1024 1024" version="1.1" xmlns="http://www.w3.org/2000/svg" p-id="10695" xmlns:xlink="http://www.w3.org/1999/xlink" width="128" height="128"><defs><style type="text/css"></style></defs><path d="M174.57778 167.235h674.504a23.43 23.43 0 0 0 23.218-23.713 23.07 23.07 0 0 0-23.218-23.147H174.57778a23.287 23.287 0 0 0-23.43 23.146c0 12.989 10.442 23.562 23.43 23.714z m843.809 403.119l-146.017-252.6v-79.796a23.14 23.14 0 0 0-23.217-23.213H174.57778a23.294 23.294 0 0 0-16.536 6.742 23.29 23.29 0 0 0-6.895 16.47v79.796L5.41478 570.425a34.852 34.852 0 0 0-4.998 24.002v363.971c0.077 21.56 17.512 39.032 39.073 39.147h944.822c21.534-0.153 38.926-17.615 39.008-39.147V594.427a40.595 40.595 0 0 0-4.933-24.073z m-146.017-95.94l49.363 85.655h-49.363v-85.655zM198.65078 262.178h626.428v297.891h-71.719c-19.544-0.18-36.168 14.208-38.795 33.573a202.028 202.028 0 0 1-69.719 123.588 203.176 203.176 0 0 1-132.946 48.932 205.296 205.296 0 0 1-133.442-48.932 203.443 203.443 0 0 1-68.934-120.661c-1.335-20.27-17.98-36.135-38.293-36.5h-72.58V262.178z m-47.433 212.236v85.655h-49.433l49.433-85.655z m793.449 444.408H79.13978v-279.96h159.658a286.33 286.33 0 0 0 88.871 138.588c49.292 41.934 113.871 67.576 184.233 67.576a286.46 286.46 0 0 0 184.238-67.576 287.313 287.313 0 0 0 88.506-138.588h159.952v279.96h0.069zM174.57778 72.942h674.504c12.949-0.234 23.3-10.84 23.218-23.789a23 23 0 0 0-23.217-23.218H174.57778a23.22 23.22 0 0 0-23.431 23.219c0.077 12.965 10.465 23.516 23.431 23.788z m0 0" p-id="10696" fill="#bfbfbf"></path><path d="M494.97278 659.862c10.153 9.205 25.632 9.205 35.791 0l117.37-117.653c7.482-10.514 6.278-24.891-2.846-34.02-9.123-9.124-23.506-10.328-34.02-2.84l-72.722 72.723V355.899c0-14.535-11.783-26.324-26.324-26.324-14.536 0-26.325 11.789-26.325 26.324V578l-72.651-72.58a26.428 26.428 0 0 0-46.79 10.051 26.442 26.442 0 0 0 9.429 26.738L494.97278 659.862z m0 0" p-id="10697" fill="#bfbfbf"></path></svg>